<svg xmlns="http://www.w3.org/2000/svg" viewBox="0 0 97.19 80.1">
  <path d="M83.11 51.19h14.08v-2.78h-5.04V27.94h-2.43l-6.68 2.67.61 2.95 5.17-2.07v16.92H83.1v2.78ZM40.05 0C17.93 0 0 17.93 0 40.05S17.93 80.1 40.05 80.1 80.1 62.17 80.1 40.05 62.16 0 40.05 0Zm.01 74.89h-.01C20.8 74.89 5.2 59.29 5.2 40.05S20.8 5.21 40.05 5.21h.01l.06.12C22.23 6.8 8.17 21.79 8.17 40.05s14.06 33.24 31.95 34.72l-.06.12Zm2.43-5.23C26.37 69.38 13.4 56.23 13.4 40.05s12.98-29.33 29.09-29.61l.07.15c-14.94 1.51-26.6 14.13-26.6 29.46s11.66 27.94 26.6 29.46l-.07.15Zm2.42-5.19c-13.18-.36-23.76-11.15-23.76-24.42s10.58-24.06 23.76-24.42l.08.16c-12.14 1.42-21.56 11.74-21.56 24.26s9.42 22.83 21.56 24.25l-.08.16Zm2.44-5.25c-10.36-.27-18.67-8.74-18.67-19.17s8.31-18.9 18.67-19.17l.06.14c-9.48 1.16-16.83 9.24-16.83 19.03s7.34 17.87 16.83 19.03l-.06.14Zm8.42-10.54c-1.6 1.23-4.16 2.63-7.59 2.63-6.17 0-10.32-4.62-10.32-11.49v-.27c0-6.7 4.35-11.56 10.35-11.56 2.75 0 4.82.69 6.85 2.29l-1.78 2.37c-1.22-1.03-2.73-1.91-5.14-1.91-4.14 0-7.14 3.69-7.14 8.78v.2c0 5.33 2.95 8.92 7.34 8.92 1.62 0 3.23-.48 4.43-1.32l.19-.13v-5.85h-4.94V38.8h7.75v9.9Zm12.12 2.59c-2.95 0-5.6-1.01-7.9-3l1.8-2.24c1.47 1.27 3.46 2.6 6.13 2.6 2.44 0 4.14-1.41 4.14-3.47 0-1.88-1.17-2.91-4.79-4.25-4.22-1.58-6.5-3.12-6.5-6.74s2.89-6.14 7.02-6.14c2.57 0 4.85.8 6.79 2.38l-1.7 2.29c-1.77-1.35-3.51-2.03-5.19-2.03-2.28 0-3.87 1.3-3.87 3.2s1.11 2.91 5.16 4.48c4.45 1.71 6.1 3.47 6.1 6.58 0 3.79-2.89 6.35-7.18 6.35Z"/>
</svg>