<svg xmlns="http://www.w3.org/2000/svg" viewBox="0 0 23.672 20.557"><g fill-opacity=".85"><path d="M2.813 18.389c0 1.377.81 2.168 2.207 2.168h13.29c1.387 0 2.198-.791 2.198-2.168V7.46l-1.387-.088v10.82c0 .635-.342.987-.957.987H5.166c-.625 0-.967-.352-.967-.987V7.373l-1.386.088ZM0 9.639c0 .38.283.654.713.654a.698.698 0 0 0 .44-.166l10.165-8.525c.205-.186.47-.196.684 0l10.166 8.525a.657.657 0 0 0 .44.166c.42 0 .703-.273.703-.654 0-.264-.098-.44-.313-.616L12.832.48c-.723-.616-1.611-.616-2.344 0L.313 9.023C.098 9.2 0 9.375 0 9.64Zm18.057-4.385 2.45 2.08V2.813c0-.42-.273-.694-.702-.694H18.76c-.42 0-.703.274-.703.693Z"/><path d="M6.025 16.113c0 .791.498 1.25 1.358 1.25h8.564c.85 0 1.358-.459 1.358-1.25V8.496l-5.01-4.19c-.39-.322-.879-.322-1.26 0l-5.01 4.19Zm1.387-.595V9.17l3.936-3.3a.487.487 0 0 1 .625 0l3.945 3.31v6.338c0 .302-.166.468-.469.468H7.871c-.293 0-.459-.166-.459-.468Z"/><path d="M9.229 13.262c0 .566.37.918.966.918h2.93c.605 0 .967-.352.967-.918v-3.194l-1.875-1.582c-.342-.283-.772-.283-1.104 0L9.23 10.068Zm1.357-.645v-1.924l.84-.703c.146-.127.332-.127.469 0l.84.703v1.924c0 .147-.069.225-.225.225h-1.7c-.146 0-.224-.078-.224-.225Z"/></g></svg>