<svg xmlns="http://www.w3.org/2000/svg" viewBox="0 0 22.695 21.846"><path fill-opacity=".85" d="M6.621 5.605A7.3 7.3 0 0 0 9.873 7.09V.732L11.172 0l1.289.732V7.09a7.214 7.214 0 0 0 3.242-1.485l2.363 1.348a9.796 9.796 0 0 1-6.894 2.852 9.785 9.785 0 0 1-6.904-2.852Zm2.861 16.221a9.797 9.797 0 0 0-.996-7.392 9.738 9.738 0 0 0-5.898-4.551v2.724a7.209 7.209 0 0 1 2.92 2.061L0 17.852v1.474l1.299.752 5.498-3.164a7.253 7.253 0 0 1 .332 3.555ZM19.746 9.883a9.738 9.738 0 0 0-5.898 4.55 9.752 9.752 0 0 0-.996 7.393l2.353-1.357a7.034 7.034 0 0 1 .342-3.555l5.498 3.164 1.289-.752v-1.474l-5.508-3.184a7.209 7.209 0 0 1 2.92-2.06Z"/></svg>